<svg xmlns="http://www.w3.org/2000/svg" width="1040" height="470" font-family="-apple-system,Segoe UI,Roboto,sans-serif" font-size="13">
<rect width="1040" height="470" fill="#ffffff"/>
<text x="24" y="30" font-size="18" font-weight="700" fill="#111">superpowers vs ultrapowers — model-fair 24-task build (impl=sonnet, reviewers=opus on both; N=1)</text>
<text x="24" y="64" font-size="15" font-weight="700" fill="#111">Total cost — ON PAR</text>
<text x="24" y="84" font-size="12" fill="#666">billed total_cost_usd · within ~6% the whole way</text>
<line x1="70" y1="400" x2="440" y2="400" stroke="#eee"/>
<text x="62" y="404" text-anchor="end" fill="#999" font-size="11">$0</text>
<line x1="70" y1="342" x2="440" y2="342" stroke="#eee"/>
<text x="62" y="346" text-anchor="end" fill="#999" font-size="11">$6</text>
<line x1="70" y1="284" x2="440" y2="284" stroke="#eee"/>
<text x="62" y="288" text-anchor="end" fill="#999" font-size="11">$12</text>
<line x1="70" y1="226" x2="440" y2="226" stroke="#eee"/>
<text x="62" y="230" text-anchor="end" fill="#999" font-size="11">$18</text>
<line x1="70" y1="168" x2="440" y2="168" stroke="#eee"/>
<text x="62" y="172" text-anchor="end" fill="#999" font-size="11">$24</text>
<line x1="70" y1="110" x2="440" y2="110" stroke="#eee"/>
<text x="62" y="114" text-anchor="end" fill="#999" font-size="11">$30</text>
<line x1="155" y1="400" x2="155" y2="404" stroke="#999"/><text x="155" y="420" text-anchor="middle" fill="#999" font-size="11">6</text>
<line x1="241" y1="400" x2="241" y2="404" stroke="#999"/><text x="241" y="420" text-anchor="middle" fill="#999" font-size="11">12</text>
<line x1="326" y1="400" x2="326" y2="404" stroke="#999"/><text x="326" y="420" text-anchor="middle" fill="#999" font-size="11">18</text>
<line x1="412" y1="400" x2="412" y2="404" stroke="#999"/><text x="412" y="420" text-anchor="middle" fill="#999" font-size="11">24</text>
<text x="255" y="440" text-anchor="middle" fill="#666" font-size="12">tasks</text>
<polyline points="155.4,334.8 240.8,286.3 411.5,127.5" fill="none" stroke="#d1495b" stroke-width="2.5"/>
<circle cx="155.4" cy="334.8" r="4.5" fill="#d1495b"/>
<circle cx="240.8" cy="286.3" r="4.5" fill="#d1495b"/>
<circle cx="411.5" cy="127.5" r="4.5" fill="#d1495b"/>
<polyline points="155.4,338.5 240.8,285.5 411.5,149.2" fill="none" stroke="#2e6fdb" stroke-width="2.5"/>
<circle cx="155.4" cy="338.5" r="4.5" fill="#2e6fdb"/>
<circle cx="240.8" cy="285.5" r="4.5" fill="#2e6fdb"/>
<circle cx="411.5" cy="149.2" r="4.5" fill="#2e6fdb"/>
<text x="419.5" y="131.5" fill="#d1495b" font-size="12" font-weight="700">SP</text>
<text x="419.5" y="153.2" fill="#2e6fdb" font-size="12" font-weight="700">UP</text>
<text x="80" y="128" fill="#444" font-size="12">SP $28.19  ·  UP $25.95  (−8%, within N=1 noise)</text>
<text x="544" y="64" font-size="15" font-weight="700" fill="#111">Coordinator session context — 6× DIVERGENCE</text>
<text x="544" y="84" font-size="12" fill="#666">peak per-turn window · the human/coordinator session</text>
<line x1="590" y1="400" x2="960" y2="400" stroke="#eee"/>
<text x="582" y="404" text-anchor="end" fill="#999" font-size="11">0K</text>
<line x1="590" y1="342" x2="960" y2="342" stroke="#eee"/>
<text x="582" y="346" text-anchor="end" fill="#999" font-size="11">40K</text>
<line x1="590" y1="284" x2="960" y2="284" stroke="#eee"/>
<text x="582" y="288" text-anchor="end" fill="#999" font-size="11">80K</text>
<line x1="590" y1="226" x2="960" y2="226" stroke="#eee"/>
<text x="582" y="230" text-anchor="end" fill="#999" font-size="11">120K</text>
<line x1="590" y1="168" x2="960" y2="168" stroke="#eee"/>
<text x="582" y="172" text-anchor="end" fill="#999" font-size="11">160K</text>
<line x1="590" y1="110" x2="960" y2="110" stroke="#eee"/>
<text x="582" y="114" text-anchor="end" fill="#999" font-size="11">200K</text>
<line x1="675" y1="400" x2="675" y2="404" stroke="#999"/><text x="675" y="420" text-anchor="middle" fill="#999" font-size="11">6</text>
<line x1="761" y1="400" x2="761" y2="404" stroke="#999"/><text x="761" y="420" text-anchor="middle" fill="#999" font-size="11">12</text>
<line x1="846" y1="400" x2="846" y2="404" stroke="#999"/><text x="846" y="420" text-anchor="middle" fill="#999" font-size="11">18</text>
<line x1="932" y1="400" x2="932" y2="404" stroke="#999"/><text x="932" y="420" text-anchor="middle" fill="#999" font-size="11">24</text>
<text x="775" y="440" text-anchor="middle" fill="#666" font-size="12">tasks</text>
<polyline points="675.4,281.1 760.8,244.8 931.5,150.6" fill="none" stroke="#d1495b" stroke-width="2.5"/>
<circle cx="675.4" cy="281.1" r="4.5" fill="#d1495b"/>
<circle cx="760.8" cy="244.8" r="4.5" fill="#d1495b"/>
<circle cx="931.5" cy="150.6" r="4.5" fill="#d1495b"/>
<polyline points="675.4,337.6 760.8,326.1 931.5,314.4" fill="none" stroke="#2e6fdb" stroke-width="2.5"/>
<circle cx="675.4" cy="337.6" r="4.5" fill="#2e6fdb"/>
<circle cx="760.8" cy="326.1" r="4.5" fill="#2e6fdb"/>
<circle cx="931.5" cy="314.4" r="4.5" fill="#2e6fdb"/>
<text x="939.5" y="154.6" fill="#d1495b" font-size="12" font-weight="700">SP</text>
<text x="939.5" y="318.4" fill="#2e6fdb" font-size="12" font-weight="700">UP</text>
<text x="600" y="128" fill="#444" font-size="12">SP +5K tok/task   ·   UP +0.8K tok/task</text>
<rect x="24" y="430" width="14" height="4" fill="#d1495b"/><text x="44" y="437" fill="#333" font-size="12">SP = superpowers (in-session coordinator)</text>
<rect x="360" y="430" width="14" height="4" fill="#2e6fdb"/><text x="380" y="437" fill="#333" font-size="12">UP = ultrapowers (flat JS coordinator)</text>
<text x="720" y="437" fill="#999" font-size="11">N=1 per point · opus 4.8 = 1M ctx, no wall in normal use</text>
</svg>