<svg xmlns="http://www.w3.org/2000/svg" width="1060" height="476" font-family="-apple-system,Segoe UI,Roboto,sans-serif" font-size="13">
<rect width="1060" height="476" fill="#ffffff"/>
<text x="24" y="28" font-size="17" font-weight="700" fill="#111">Superpowers v6 vs Ultrapowers: measured to 24 tasks, projected to SP's 1M window</text>
<text x="24" y="46" font-size="12" fill="#666">solid = measured (12 &amp; 24 tasks, N=1) &#183; dashed = PROJECTED &#183; same fixture, sonnet implementer + opus reviewers on both; only the loop locus differs</text>
<text x="24" y="74" font-size="15" font-weight="700" fill="#111">Total cost: ~2&#215; gap by 12 tasks, compounding</text>
<text x="24" y="92" font-size="12" fill="#666">billed total_cost_usd &#183; band = N=1 + tax uncertainty</text>
<rect x="70" y="110.0" width="111.6" height="290" fill="#2e6fdb" fill-opacity="0.04"/>
<line x1="181.6" y1="106.0" x2="181.6" y2="400" stroke="#555" stroke-width="1.2" stroke-dasharray="3,3"/>
<text x="175.6" y="104.0" text-anchor="end" fill="#555" font-size="10">&#9664; measured (N=1)</text>
<text x="187.6" y="104.0" text-anchor="start" fill="#555" font-size="10">projected &#9654;</text>
<line x1="70" y1="400.0" x2="470" y2="400.0" stroke="#eee"/>
<text x="62" y="404.0" text-anchor="end" fill="#999" font-size="11">$0</text>
<line x1="70" y1="347.3" x2="470" y2="347.3" stroke="#eee"/>
<text x="62" y="351.3" text-anchor="end" fill="#999" font-size="11">$40</text>
<line x1="70" y1="294.5" x2="470" y2="294.5" stroke="#eee"/>
<text x="62" y="298.5" text-anchor="end" fill="#999" font-size="11">$80</text>
<line x1="70" y1="241.8" x2="470" y2="241.8" stroke="#eee"/>
<text x="62" y="245.8" text-anchor="end" fill="#999" font-size="11">$120</text>
<line x1="70" y1="189.1" x2="470" y2="189.1" stroke="#eee"/>
<text x="62" y="193.1" text-anchor="end" fill="#999" font-size="11">$160</text>
<line x1="70" y1="136.4" x2="470" y2="136.4" stroke="#eee"/>
<text x="62" y="140.4" text-anchor="end" fill="#999" font-size="11">$200</text>
<line x1="125.8" y1="400" x2="125.8" y2="404" stroke="#999"/>
<text x="125.8" y="420" text-anchor="middle" fill="#999" font-size="11" font-weight="700">12</text>
<line x1="181.6" y1="400" x2="181.6" y2="404" stroke="#999"/>
<text x="181.6" y="420" text-anchor="middle" fill="#999" font-size="11" font-weight="700">24</text>
<line x1="293.3" y1="400" x2="293.3" y2="404" stroke="#999"/>
<text x="293.3" y="420" text-anchor="middle" fill="#999" font-size="11">48</text>
<line x1="404.9" y1="400" x2="404.9" y2="404" stroke="#999"/>
<text x="404.9" y="420" text-anchor="middle" fill="#999" font-size="11">72</text>
<line x1="470.0" y1="400" x2="470.0" y2="404" stroke="#999"/>
<text x="470.0" y="420" text-anchor="middle" fill="#999" font-size="11">86</text>
<text x="270" y="438" text-anchor="middle" fill="#666" font-size="12">tasks</text>
<polygon points="181.6,346.6 186.3,344.0 190.9,341.4 195.6,338.7 200.2,336.0 204.9,333.3 209.5,330.6 214.2,327.8 218.8,325.0 223.5,322.2 228.1,319.4 232.8,316.5 237.4,313.6 242.1,310.6 246.7,307.7 251.4,304.7 256.0,301.7 260.7,298.6 265.3,295.5 270.0,292.4 274.7,289.3 279.3,286.1 284.0,282.9 288.6,279.7 293.3,276.4 297.9,273.1 302.6,269.8 307.2,266.5 311.9,263.1 316.5,259.7 321.2,256.3 325.8,252.8 330.5,249.3 335.1,245.8 339.8,242.3 344.4,238.7 349.1,235.1 353.7,231.5 358.4,227.8 363.0,224.1 367.7,220.4 372.3,216.6 377.0,212.9 381.6,209.1 386.3,205.2 390.9,201.4 395.6,197.5 400.2,193.5 404.9,189.6 409.5,185.6 414.2,181.6 418.8,177.6 423.5,173.5 428.1,169.4 432.8,165.3 437.4,161.1 442.1,156.9 446.7,152.7 451.4,148.5 456.0,144.2 460.7,139.9 465.3,135.6 470.0,131.2 470.0,194.6 465.3,197.5 460.7,200.4 456.0,203.2 451.4,206.1 446.7,208.9 442.1,211.8 437.4,214.6 432.8,217.4 428.1,220.2 423.5,223.0 418.8,225.8 414.2,228.5 409.5,231.3 404.9,234.0 400.2,236.7 395.6,239.4 390.9,242.1 386.3,244.8 381.6,247.5 377.0,250.2 372.3,252.8 367.7,255.5 363.0,258.1 358.4,260.7 353.7,263.3 349.1,265.9 344.4,268.5 339.8,271.1 335.1,273.7 330.5,276.2 325.8,278.7 321.2,281.3 316.5,283.8 311.9,286.3 307.2,288.8 302.6,291.2 297.9,293.7 293.3,296.2 288.6,298.6 284.0,301.0 279.3,303.5 274.7,305.9 270.0,308.3 265.3,310.6 260.7,313.0 256.0,315.4 251.4,317.7 246.7,320.1 242.1,322.4 237.4,324.7 232.8,327.0 228.1,329.3 223.5,331.6 218.8,333.8 214.2,336.1 209.5,338.3 204.9,340.5 200.2,342.8 195.6,345.0 190.9,347.2 186.3,349.3 181.6,351.5" fill="#d1495b" fill-opacity="0.10" stroke="none"/>
<polyline points="181.6,349.2 186.3,346.9 190.9,344.5 195.6,342.1 200.2,339.7 204.9,337.2 209.5,334.8 214.2,332.3 218.8,329.8 223.5,327.2 228.1,324.7 232.8,322.1 237.4,319.6 242.1,317.0 246.7,314.3 251.4,311.7 256.0,309.0 260.7,306.4 265.3,303.7 270.0,300.9 274.7,298.2 279.3,295.5 284.0,292.7 288.6,289.9 293.3,287.1 297.9,284.2 302.6,281.4 307.2,278.5 311.9,275.6 316.5,272.7 321.2,269.7 325.8,266.8 330.5,263.8 335.1,260.8 339.8,257.8 344.4,254.8 349.1,251.7 353.7,248.6 358.4,245.5 363.0,242.4 367.7,239.3 372.3,236.1 377.0,233.0 381.6,229.8 386.3,226.6 390.9,223.3 395.6,220.1 400.2,216.8 404.9,213.5 409.5,210.2 414.2,206.9 418.8,203.5 423.5,200.1 428.1,196.7 432.8,193.3 437.4,189.9 442.1,186.5 446.7,183.0 451.4,179.5 456.0,176.0 460.7,172.5 465.3,168.9 470.0,165.3" fill="none" stroke="#d1495b" stroke-width="2.5" stroke-dasharray="7,5"/>
<polyline points="181.6,373.4 186.3,372.2 190.9,371.0 195.6,369.8 200.2,368.6 204.9,367.5 209.5,366.3 214.2,365.1 218.8,363.9 223.5,362.7 228.1,361.6 232.8,360.4 237.4,359.2 242.1,358.0 246.7,356.8 251.4,355.6 256.0,354.5 260.7,353.3 265.3,352.1 270.0,350.9 274.7,349.7 279.3,348.5 284.0,347.4 288.6,346.2 293.3,345.0 297.9,343.8 302.6,342.6 307.2,341.5 311.9,340.3 316.5,339.1 321.2,337.9 325.8,336.7 330.5,335.5 335.1,334.4 339.8,333.2 344.4,332.0 349.1,330.8 353.7,329.6 358.4,328.4 363.0,327.3 367.7,326.1 372.3,324.9 377.0,323.7 381.6,322.5 386.3,321.3 390.9,320.2 395.6,319.0 400.2,317.8 404.9,316.6 409.5,315.4 414.2,314.3 418.8,313.1 423.5,311.9 428.1,310.7 432.8,309.5 437.4,308.3 442.1,307.2 446.7,306.0 451.4,304.8 456.0,303.6 460.7,302.4 465.3,301.2 470.0,300.1" fill="none" stroke="#2e6fdb" stroke-width="2.5" stroke-dasharray="7,5"/>
<polyline points="125.8,372.7 181.6,349.3" fill="none" stroke="#d1495b" stroke-width="2.8"/>
<polyline points="125.8,387.6 181.6,373.4" fill="none" stroke="#2e6fdb" stroke-width="2.8"/>
<circle cx="125.8" cy="372.7" r="3.6" fill="#d1495b"/>
<circle cx="181.6" cy="349.3" r="3.6" fill="#d1495b"/>
<circle cx="125.8" cy="387.6" r="3.6" fill="#2e6fdb"/>
<circle cx="181.6" cy="373.4" r="3.6" fill="#2e6fdb"/>
<text x="187.6" y="341.3" fill="#d1495b" font-size="11" font-weight="700">SP $38 @24</text>
<text x="187.6" y="389.4" fill="#2e6fdb" font-size="11" font-weight="700">UP $20 @24</text>
<text x="466.0" y="157.3" text-anchor="end" fill="#d1495b" font-size="12" font-weight="700">SP ~$178</text>
<text x="466.0" y="316.1" text-anchor="end" fill="#2e6fdb" font-size="12" font-weight="700">UP ~$76</text>
<text x="302.6" y="251.7" text-anchor="middle" fill="#444" font-size="11">ratio compounds: 1.9&#215; @24 to ~2.3&#215; @86</text>
<text x="554" y="74" font-size="15" font-weight="700" fill="#111">Coordinator window: SP fills to 1M; UP flat</text>
<text x="554" y="92" font-size="12" fill="#666">peak per-turn window &#183; opus 4.8 ceiling = 1M</text>
<rect x="600" y="110.0" width="111.6" height="290" fill="#2e6fdb" fill-opacity="0.04"/>
<line x1="711.6" y1="106.0" x2="711.6" y2="400" stroke="#555" stroke-width="1.2" stroke-dasharray="3,3"/>
<text x="705.6" y="104.0" text-anchor="end" fill="#555" font-size="10">&#9664; measured (N=1)</text>
<text x="717.6" y="104.0" text-anchor="start" fill="#555" font-size="10">projected &#9654;</text>
<line x1="600" y1="400.0" x2="1000" y2="400.0" stroke="#eee"/>
<text x="592" y="404.0" text-anchor="end" fill="#999" font-size="11">0K</text>
<line x1="600" y1="347.3" x2="1000" y2="347.3" stroke="#eee"/>
<text x="592" y="351.3" text-anchor="end" fill="#999" font-size="11">200K</text>
<line x1="600" y1="294.5" x2="1000" y2="294.5" stroke="#eee"/>
<text x="592" y="298.5" text-anchor="end" fill="#999" font-size="11">400K</text>
<line x1="600" y1="241.8" x2="1000" y2="241.8" stroke="#eee"/>
<text x="592" y="245.8" text-anchor="end" fill="#999" font-size="11">600K</text>
<line x1="600" y1="189.1" x2="1000" y2="189.1" stroke="#eee"/>
<text x="592" y="193.1" text-anchor="end" fill="#999" font-size="11">800K</text>
<line x1="600" y1="136.4" x2="1000" y2="136.4" stroke="#eee"/>
<text x="592" y="140.4" text-anchor="end" fill="#999" font-size="11">1000K</text>
<line x1="655.8" y1="400" x2="655.8" y2="404" stroke="#999"/>
<text x="655.8" y="420" text-anchor="middle" fill="#999" font-size="11" font-weight="700">12</text>
<line x1="711.6" y1="400" x2="711.6" y2="404" stroke="#999"/>
<text x="711.6" y="420" text-anchor="middle" fill="#999" font-size="11" font-weight="700">24</text>
<line x1="823.3" y1="400" x2="823.3" y2="404" stroke="#999"/>
<text x="823.3" y="420" text-anchor="middle" fill="#999" font-size="11">48</text>
<line x1="934.9" y1="400" x2="934.9" y2="404" stroke="#999"/>
<text x="934.9" y="420" text-anchor="middle" fill="#999" font-size="11">72</text>
<line x1="1000.0" y1="400" x2="1000.0" y2="404" stroke="#999"/>
<text x="1000.0" y="420" text-anchor="middle" fill="#999" font-size="11">86</text>
<text x="800" y="438" text-anchor="middle" fill="#666" font-size="12">tasks</text>
<line x1="600" y1="136.4" x2="1000" y2="136.4" stroke="#b00" stroke-width="1.3" stroke-dasharray="4,4"/>
<text x="1000.0" y="130.4" text-anchor="end" fill="#b00" font-size="11" font-weight="700">1M ceiling</text>
<polyline points="711.6,316.7 716.3,313.8 720.9,310.9 725.6,308.0 730.2,305.1 734.9,302.2 739.5,299.3 744.2,296.4 748.8,293.5 753.5,290.6 758.1,287.7 762.8,284.8 767.4,281.9 772.1,279.0 776.7,276.1 781.4,273.2 786.0,270.3 790.7,267.4 795.3,264.5 800.0,261.6 804.7,258.7 809.3,255.8 814.0,252.9 818.6,250.0 823.3,247.1 827.9,244.2 832.6,241.3 837.2,238.4 841.9,235.5 846.5,232.6 851.2,229.7 855.8,226.8 860.5,223.9 865.1,221.0 869.8,218.1 874.4,215.2 879.1,212.3 883.7,209.4 888.4,206.5 893.0,203.6 897.7,200.7 902.3,197.8 907.0,194.9 911.6,192.0 916.3,189.1 920.9,186.2 925.6,183.3 930.2,180.4 934.9,177.5 939.5,174.6 944.2,171.7 948.8,168.8 953.5,165.9 958.1,163.0 962.8,160.1 967.4,157.2 972.1,154.3 976.7,151.4 981.4,148.5 986.0,145.6 990.7,142.7 995.3,139.8 1000.0,136.9" fill="none" stroke="#d1495b" stroke-width="2.5" stroke-dasharray="7,5"/>
<polyline points="711.6,384.3 716.3,384.2 720.9,384.0 725.6,383.9 730.2,383.7 734.9,383.5 739.5,383.4 744.2,383.2 748.8,383.1 753.5,382.9 758.1,382.8 762.8,382.6 767.4,382.4 772.1,382.3 776.7,382.1 781.4,382.0 786.0,381.8 790.7,381.7 795.3,381.5 800.0,381.3 804.7,381.2 809.3,381.0 814.0,380.9 818.6,380.7 823.3,380.5 827.9,380.4 832.6,380.2 837.2,380.1 841.9,379.9 846.5,379.8 851.2,379.6 855.8,379.4 860.5,379.3 865.1,379.1 869.8,379.0 874.4,378.8 879.1,378.6 883.7,378.5 888.4,378.3 893.0,378.2 897.7,378.0 902.3,377.9 907.0,377.7 911.6,377.5 916.3,377.4 920.9,377.2 925.6,377.1 930.2,376.9 934.9,376.7 939.5,376.6 944.2,376.4 948.8,376.3 953.5,376.1 958.1,376.0 962.8,375.8 967.4,375.6 972.1,375.5 976.7,375.3 981.4,375.2 986.0,375.0 990.7,374.8 995.3,374.7 1000.0,374.5" fill="none" stroke="#2e6fdb" stroke-width="2.5" stroke-dasharray="7,5"/>
<polyline points="655.8,351.5 711.6,316.7" fill="none" stroke="#d1495b" stroke-width="2.8"/>
<polyline points="655.8,386.3 711.6,384.3" fill="none" stroke="#2e6fdb" stroke-width="2.8"/>
<circle cx="655.8" cy="351.5" r="3.6" fill="#d1495b"/>
<circle cx="655.8" cy="386.3" r="3.6" fill="#2e6fdb"/>
<text x="661.8" y="345.5" fill="#d1495b" font-size="11" font-weight="700">184K @12</text>
<text x="661.8" y="402.3" fill="#2e6fdb" font-size="11" font-weight="700">52K @12</text>
<text x="996.0" y="152.4" text-anchor="end" fill="#d1495b" font-size="11" font-weight="700">SP at 1M ~task 86</text>
<text x="996.0" y="390.5" text-anchor="end" fill="#2e6fdb" font-size="12" font-weight="700">UP ~97K</text>
<rect x="24" y="458" width="14" height="4" fill="#d1495b"/><text x="44" y="465" fill="#333" font-size="12">SP = Superpowers v6 (in-session opus coordinator)</text>
<rect x="360" y="458" width="14" height="4" fill="#2e6fdb"/><text x="380" y="465" fill="#333" font-size="12">UP = Ultrapowers (flat JS coordinator)</text>
<text x="700" y="465" fill="#999" font-size="11">PROJECTED 24..86 via the window/cache-read mechanism &#183; not measured</text>
</svg>
