<svg xmlns="http://www.w3.org/2000/svg" width="1040" height="470" font-family="-apple-system,Segoe UI,Roboto,sans-serif" font-size="13">
<rect width="1040" height="470" fill="#ffffff"/>
<text x="24" y="28" font-size="17" font-weight="700" fill="#111">Projected to ~1M coordinator window &#8212; solid = measured (&#8804;24 tasks), dashed = PROJECTED (N=1 extrapolation)</text>
<text x="24" y="58" font-size="15" font-weight="700" fill="#111">Total cost &#8212; gap opens at scale</text>
<text x="24" y="76" font-size="12" fill="#666">billed total_cost_usd · band = N=1 uncertainty</text>
<line x1="70" y1="400.0" x2="440" y2="400.0" stroke="#eee"/>
<text x="62" y="404.0" text-anchor="end" fill="#999" font-size="11">$0</text>
<line x1="70" y1="331.0" x2="440" y2="331.0" stroke="#eee"/>
<text x="62" y="335.0" text-anchor="end" fill="#999" font-size="11">$100</text>
<line x1="70" y1="261.9" x2="440" y2="261.9" stroke="#eee"/>
<text x="62" y="265.9" text-anchor="end" fill="#999" font-size="11">$200</text>
<line x1="70" y1="192.9" x2="440" y2="192.9" stroke="#eee"/>
<text x="62" y="196.9" text-anchor="end" fill="#999" font-size="11">$300</text>
<line x1="70" y1="123.8" x2="440" y2="123.8" stroke="#eee"/>
<text x="62" y="127.8" text-anchor="end" fill="#999" font-size="11">$400</text>
<line x1="119.3" y1="400" x2="119.3" y2="404" stroke="#999"/>
<text x="119.3" y="420" text-anchor="middle" fill="#999" font-size="11">24</text>
<line x1="168.7" y1="400" x2="168.7" y2="404" stroke="#999"/>
<text x="168.7" y="420" text-anchor="middle" fill="#999" font-size="11">48</text>
<line x1="267.3" y1="400" x2="267.3" y2="404" stroke="#999"/>
<text x="267.3" y="420" text-anchor="middle" fill="#999" font-size="11">96</text>
<line x1="366.0" y1="400" x2="366.0" y2="404" stroke="#999"/>
<text x="366.0" y="420" text-anchor="middle" fill="#999" font-size="11">144</text>
<line x1="440.0" y1="400" x2="440.0" y2="404" stroke="#999"/>
<text x="440.0" y="420" text-anchor="middle" fill="#999" font-size="11">180</text>
<text x="255" y="438" text-anchor="middle" fill="#666" font-size="12">tasks</text>
<polygon points="119.3,379.2 125.5,376.1 131.7,372.8 137.8,369.4 144.0,365.9 150.2,362.3 156.3,358.5 162.5,354.7 168.7,350.7 174.8,346.6 181.0,342.3 187.2,337.9 193.3,333.5 199.5,328.9 205.7,324.1 211.8,319.3 218.0,314.3 224.2,309.2 230.3,304.0 236.5,298.7 242.7,293.2 248.8,287.6 255.0,281.9 261.2,276.1 267.3,270.2 273.5,264.1 279.7,257.9 285.8,251.6 292.0,245.2 298.2,238.6 304.3,231.9 310.5,225.1 316.7,218.2 322.8,211.2 329.0,204.0 335.2,196.7 341.3,189.3 347.5,181.8 353.7,174.1 359.8,166.4 366.0,158.5 372.2,150.5 378.3,142.3 384.5,134.1 390.7,125.7 396.8,117.2 403.0,108.5 409.2,99.8 415.3,90.9 421.5,81.9 427.7,72.8 433.8,63.6 440.0,54.2 440.0,200.2 433.8,204.7 427.7,209.2 421.5,213.7 415.3,218.1 409.2,222.5 403.0,226.8 396.8,231.1 390.7,235.3 384.5,239.5 378.3,243.7 372.2,247.8 366.0,251.9 359.8,255.9 353.7,259.9 347.5,263.9 341.3,267.8 335.2,271.7 329.0,275.5 322.8,279.3 316.7,283.1 310.5,286.8 304.3,290.5 298.2,294.1 292.0,297.7 285.8,301.3 279.7,304.8 273.5,308.2 267.3,311.7 261.2,315.1 255.0,318.4 248.8,321.7 242.7,325.0 236.5,328.2 230.3,331.4 224.2,334.6 218.0,337.7 211.8,340.7 205.7,343.8 199.5,346.7 193.3,349.7 187.2,352.6 181.0,355.4 174.8,358.3 168.7,361.1 162.5,363.8 156.3,366.5 150.2,369.1 144.0,371.8 137.8,374.3 131.7,376.9 125.5,379.4 119.3,381.8" fill="#d1495b" fill-opacity="0.10" stroke="none"/>
<polygon points="119.3,381.9 125.5,379.6 131.7,377.2 137.8,374.8 144.0,372.5 150.2,370.1 156.3,367.6 162.5,365.2 168.7,362.8 174.8,360.3 181.0,357.8 187.2,355.3 193.3,352.8 199.5,350.3 205.7,347.7 211.8,345.2 218.0,342.6 224.2,340.0 230.3,337.4 236.5,334.8 242.7,332.1 248.8,329.5 255.0,326.8 261.2,324.1 267.3,321.4 273.5,318.7 279.7,315.9 285.8,313.2 292.0,310.4 298.2,307.6 304.3,304.8 310.5,302.0 316.7,299.2 322.8,296.3 329.0,293.4 335.2,290.6 341.3,287.7 347.5,284.7 353.7,281.8 359.8,278.9 366.0,275.9 372.2,272.9 378.3,269.9 384.5,266.9 390.7,263.9 396.8,260.8 403.0,257.8 409.2,254.7 415.3,251.6 421.5,248.5 427.7,245.4 433.8,242.2 440.0,239.1 440.0,259.2 433.8,261.7 427.7,264.2 421.5,266.7 415.3,269.1 409.2,271.6 403.0,274.1 396.8,276.5 390.7,279.0 384.5,281.4 378.3,283.9 372.2,286.3 366.0,288.8 359.8,291.2 353.7,293.6 347.5,296.1 341.3,298.5 335.2,300.9 329.0,303.3 322.8,305.7 316.7,308.1 310.5,310.5 304.3,312.9 298.2,315.3 292.0,317.7 285.8,320.0 279.7,322.4 273.5,324.8 267.3,327.1 261.2,329.5 255.0,331.8 248.8,334.2 242.7,336.5 236.5,338.8 230.3,341.2 224.2,343.5 218.0,345.8 211.8,348.1 205.7,350.4 199.5,352.8 193.3,355.1 187.2,357.3 181.0,359.6 174.8,361.9 168.7,364.2 162.5,366.5 156.3,368.7 150.2,371.0 144.0,373.3 137.8,375.5 131.7,377.8 125.5,380.0 119.3,382.3" fill="#2e6fdb" fill-opacity="0.10" stroke="none"/>
<polyline points="119.3,380.5 125.5,377.7 131.7,374.8 137.8,371.9 144.0,368.8 150.2,365.7 156.3,362.5 162.5,359.2 168.7,355.8 174.8,352.4 181.0,348.9 187.2,345.2 193.3,341.5 199.5,337.8 205.7,333.9 211.8,330.0 218.0,325.9 224.2,321.8 230.3,317.7 236.5,313.4 242.7,309.0 248.8,304.6 255.0,300.1 261.2,295.5 267.3,290.8 273.5,286.1 279.7,281.3 285.8,276.3 292.0,271.3 298.2,266.3 304.3,261.1 310.5,255.9 316.7,250.5 322.8,245.1 329.0,239.6 335.2,234.1 341.3,228.4 347.5,222.7 353.7,216.9 359.8,211.0 366.0,205.0 372.2,198.9 378.3,192.8 384.5,186.6 390.7,180.3 396.8,173.9 403.0,167.4 409.2,160.9 415.3,154.3 421.5,147.6 427.7,140.8 433.8,133.9 440.0,126.9" fill="none" stroke="#d1495b" stroke-width="2.5" stroke-dasharray="7,5"/>
<polyline points="119.3,382.1 125.5,379.8 131.7,377.5 137.8,375.2 144.0,372.9 150.2,370.5 156.3,368.2 162.5,365.8 168.7,363.5 174.8,361.1 181.0,358.7 187.2,356.3 193.3,353.9 199.5,351.5 205.7,349.0 211.8,346.6 218.0,344.1 224.2,341.7 230.3,339.2 236.5,336.7 242.7,334.2 248.8,331.7 255.0,329.2 261.2,326.7 267.3,324.2 273.5,321.6 279.7,319.0 285.8,316.5 292.0,313.9 298.2,311.3 304.3,308.7 310.5,306.1 316.7,303.5 322.8,300.8 329.0,298.2 335.2,295.5 341.3,292.9 347.5,290.2 353.7,287.5 359.8,284.8 366.0,282.1 372.2,279.4 378.3,276.6 384.5,273.9 390.7,271.1 396.8,268.4 403.0,265.6 409.2,262.8 415.3,260.0 421.5,257.2 427.7,254.4 433.8,251.6 440.0,248.7" fill="none" stroke="#2e6fdb" stroke-width="2.5" stroke-dasharray="7,5"/>
<polyline points="82.3,395.3 94.7,391.9 119.3,380.5" fill="none" stroke="#d1495b" stroke-width="2.8"/>
<polyline points="82.3,395.6 94.7,391.8 119.3,382.1" fill="none" stroke="#2e6fdb" stroke-width="2.8"/>
<circle cx="82.3" cy="395.3" r="3.6" fill="#d1495b"/>
<circle cx="94.7" cy="391.9" r="3.6" fill="#d1495b"/>
<circle cx="119.3" cy="380.5" r="3.6" fill="#d1495b"/>
<circle cx="82.3" cy="395.6" r="3.6" fill="#2e6fdb"/>
<circle cx="94.7" cy="391.8" r="3.6" fill="#2e6fdb"/>
<circle cx="119.3" cy="382.1" r="3.6" fill="#2e6fdb"/>
<text x="436.0" y="120.9" text-anchor="end" fill="#d1495b" font-size="12" font-weight="700">SP ~$395</text>
<text x="436.0" y="264.7" text-anchor="end" fill="#2e6fdb" font-size="12" font-weight="700">UP ~$219</text>
<text x="80" y="151.4" fill="#444" font-size="12">@~task 180: ~1.8&#215; · ~$175 gap</text>
<text x="544" y="58" font-size="15" font-weight="700" fill="#111">Coordinator window &#8212; SP nears 1M; UP bounded</text>
<text x="544" y="76" font-size="12" fill="#666">peak per-turn window · opus 4.8 ceiling = 1M</text>
<line x1="590" y1="400.0" x2="960" y2="400.0" stroke="#eee"/>
<text x="582" y="404.0" text-anchor="end" fill="#999" font-size="11">0K</text>
<line x1="590" y1="342.0" x2="960" y2="342.0" stroke="#eee"/>
<text x="582" y="346.0" text-anchor="end" fill="#999" font-size="11">200K</text>
<line x1="590" y1="284.0" x2="960" y2="284.0" stroke="#eee"/>
<text x="582" y="288.0" text-anchor="end" fill="#999" font-size="11">400K</text>
<line x1="590" y1="226.0" x2="960" y2="226.0" stroke="#eee"/>
<text x="582" y="230.0" text-anchor="end" fill="#999" font-size="11">600K</text>
<line x1="590" y1="168.0" x2="960" y2="168.0" stroke="#eee"/>
<text x="582" y="172.0" text-anchor="end" fill="#999" font-size="11">800K</text>
<line x1="590" y1="110.0" x2="960" y2="110.0" stroke="#eee"/>
<text x="582" y="114.0" text-anchor="end" fill="#999" font-size="11">1000K</text>
<line x1="639.3" y1="400" x2="639.3" y2="404" stroke="#999"/>
<text x="639.3" y="420" text-anchor="middle" fill="#999" font-size="11">24</text>
<line x1="688.7" y1="400" x2="688.7" y2="404" stroke="#999"/>
<text x="688.7" y="420" text-anchor="middle" fill="#999" font-size="11">48</text>
<line x1="787.3" y1="400" x2="787.3" y2="404" stroke="#999"/>
<text x="787.3" y="420" text-anchor="middle" fill="#999" font-size="11">96</text>
<line x1="886.0" y1="400" x2="886.0" y2="404" stroke="#999"/>
<text x="886.0" y="420" text-anchor="middle" fill="#999" font-size="11">144</text>
<line x1="960.0" y1="400" x2="960.0" y2="404" stroke="#999"/>
<text x="960.0" y="420" text-anchor="middle" fill="#999" font-size="11">180</text>
<text x="775" y="438" text-anchor="middle" fill="#666" font-size="12">tasks</text>
<line x1="590" y1="110.0" x2="960" y2="110.0" stroke="#b00" stroke-width="1.3" stroke-dasharray="4,4"/>
<text x="960.0" y="104.0" text-anchor="end" fill="#b00" font-size="11" font-weight="700">1M ceiling</text>
<polyline points="639.3,350.1 645.5,345.8 651.7,341.4 657.8,337.1 664.0,332.7 670.2,328.4 676.3,324.0 682.5,319.7 688.7,315.3 694.8,311.0 701.0,306.6 707.2,302.3 713.3,297.9 719.5,293.6 725.7,289.2 731.8,284.9 738.0,280.5 744.2,276.2 750.3,271.8 756.5,267.5 762.7,263.1 768.8,258.8 775.0,254.4 781.2,250.1 787.3,245.7 793.5,241.4 799.7,237.0 805.8,232.7 812.0,228.3 818.2,224.0 824.3,219.6 830.5,215.3 836.7,210.9 842.8,206.6 849.0,202.2 855.2,197.9 861.3,193.5 867.5,189.2 873.7,184.8 879.8,180.5 886.0,176.1 892.2,171.8 898.3,167.4 904.5,163.1 910.7,158.7 916.8,154.4 923.0,150.0 929.2,145.7 935.3,141.3 941.5,137.0 947.7,132.6 953.8,128.3 960.0,123.9" fill="none" stroke="#d1495b" stroke-width="2.5" stroke-dasharray="7,5"/>
<polyline points="639.3,382.9 645.5,382.2 651.7,381.5 657.8,380.7 664.0,380.0 670.2,379.3 676.3,378.6 682.5,377.9 688.7,377.1 694.8,376.4 701.0,375.7 707.2,375.0 713.3,374.2 719.5,373.5 725.7,372.8 731.8,372.1 738.0,371.4 744.2,370.6 750.3,369.9 756.5,369.2 762.7,368.5 768.8,367.7 775.0,367.0 781.2,366.3 787.3,365.6 793.5,364.9 799.7,364.1 805.8,363.4 812.0,362.7 818.2,362.0 824.3,361.3 830.5,360.5 836.7,359.8 842.8,359.1 849.0,358.4 855.2,357.6 861.3,356.9 867.5,356.2 873.7,355.5 879.8,354.8 886.0,354.0 892.2,353.3 898.3,352.6 904.5,351.9 910.7,351.1 916.8,350.4 923.0,349.7 929.2,349.0 935.3,348.3 941.5,347.5 947.7,346.8 953.8,346.1 960.0,345.4" fill="none" stroke="#2e6fdb" stroke-width="2.5" stroke-dasharray="7,5"/>
<polyline points="602.3,376.2 614.7,369.0 639.3,350.1" fill="none" stroke="#d1495b" stroke-width="2.8"/>
<polyline points="602.3,387.5 614.7,385.2 639.3,382.9" fill="none" stroke="#2e6fdb" stroke-width="2.8"/>
<circle cx="602.3" cy="376.2" r="3.6" fill="#d1495b"/>
<circle cx="614.7" cy="369.0" r="3.6" fill="#d1495b"/>
<circle cx="639.3" cy="350.1" r="3.6" fill="#d1495b"/>
<circle cx="602.3" cy="387.5" r="3.6" fill="#2e6fdb"/>
<circle cx="614.7" cy="385.2" r="3.6" fill="#2e6fdb"/>
<circle cx="639.3" cy="382.9" r="3.6" fill="#2e6fdb"/>
<text x="956.0" y="117.9" text-anchor="end" fill="#d1495b" font-size="12" font-weight="700">SP ~952K</text>
<text x="956.0" y="361.4" text-anchor="end" fill="#2e6fdb" font-size="12" font-weight="700">UP ~188K (bounded)</text>
<rect x="24" y="452" width="14" height="4" fill="#d1495b"/><text x="44" y="459" fill="#333" font-size="12">SP = superpowers (in-session coordinator)</text>
<rect x="330" y="452" width="14" height="4" fill="#2e6fdb"/><text x="350" y="459" fill="#333" font-size="12">UP = ultrapowers (flat JS coordinator)</text>
<text x="640" y="459" fill="#999" font-size="11">PROJECTED beyond 24 tasks via cache-read-tax mechanism · not measured</text>
</svg>
