<svg xmlns="http://www.w3.org/2000/svg" width="1040" height="470" font-family="-apple-system,Segoe UI,Roboto,sans-serif" font-size="13">
<rect width="1040" height="470" fill="#ffffff"/>
<text x="24" y="28" font-size="17" font-weight="700" fill="#111">Measured head-to-head &#8594; projected to a 1M coordinator window</text>
<text x="24" y="46" font-size="12" fill="#666">solid = measured (&#8804;24 tasks, N=1 ladder) &#183; dashed = PROJECTED extrapolation past the task-24 cutoff</text>
<text x="24" y="74" font-size="15" font-weight="700" fill="#111">Total cost &#8212; on par early, gap opens at scale</text>
<text x="24" y="92" font-size="12" fill="#666">billed total_cost_usd &#183; band = N=1 uncertainty</text>
<rect x="70" y="110.0" width="148.0" height="290" fill="#2e6fdb" fill-opacity="0.04"/>
<line x1="218.0" y1="106.0" x2="218.0" y2="400" stroke="#555" stroke-width="1.2" stroke-dasharray="3,3"/>
<text x="212.0" y="104.0" text-anchor="end" fill="#555" font-size="10">&#9664; measured (N=1)</text>
<text x="224.0" y="104.0" text-anchor="start" fill="#555" font-size="10">projected &#9654;</text>
<line x1="70" y1="400.0" x2="440" y2="400.0" stroke="#eee"/>
<text x="62" y="404.0" text-anchor="end" fill="#999" font-size="11">$0</text>
<line x1="70" y1="331.0" x2="440" y2="331.0" stroke="#eee"/>
<text x="62" y="335.0" text-anchor="end" fill="#999" font-size="11">$100</text>
<line x1="70" y1="261.9" x2="440" y2="261.9" stroke="#eee"/>
<text x="62" y="265.9" text-anchor="end" fill="#999" font-size="11">$200</text>
<line x1="70" y1="192.9" x2="440" y2="192.9" stroke="#eee"/>
<text x="62" y="196.9" text-anchor="end" fill="#999" font-size="11">$300</text>
<line x1="70" y1="123.8" x2="440" y2="123.8" stroke="#eee"/>
<text x="62" y="127.8" text-anchor="end" fill="#999" font-size="11">$400</text>
<line x1="107.0" y1="400" x2="107.0" y2="404" stroke="#999"/>
<text x="107.0" y="420" text-anchor="middle" fill="#999" font-size="11">6</text>
<line x1="144.0" y1="400" x2="144.0" y2="404" stroke="#999"/>
<text x="144.0" y="420" text-anchor="middle" fill="#999" font-size="11">12</text>
<line x1="218.0" y1="400" x2="218.0" y2="404" stroke="#999"/>
<text x="218.0" y="420" text-anchor="middle" fill="#999" font-size="11" font-weight="700">24</text>
<line x1="252.2" y1="400" x2="252.2" y2="404" stroke="#999"/>
<text x="252.2" y="420" text-anchor="middle" fill="#999" font-size="11">48</text>
<line x1="320.5" y1="400" x2="320.5" y2="404" stroke="#999"/>
<text x="320.5" y="420" text-anchor="middle" fill="#999" font-size="11">96</text>
<line x1="388.8" y1="400" x2="388.8" y2="404" stroke="#999"/>
<text x="388.8" y="420" text-anchor="middle" fill="#999" font-size="11">144</text>
<line x1="440.0" y1="400" x2="440.0" y2="404" stroke="#999"/>
<text x="440.0" y="420" text-anchor="middle" fill="#999" font-size="11">180</text>
<text x="255" y="438" text-anchor="middle" fill="#666" font-size="12">tasks (axis compresses after 24)</text>
<polygon points="218.0,379.2 222.3,376.1 226.5,372.8 230.8,369.4 235.1,365.9 239.3,362.3 243.6,358.5 247.9,354.7 252.2,350.7 256.4,346.6 260.7,342.3 265.0,337.9 269.2,333.5 273.5,328.9 277.8,324.1 282.0,319.3 286.3,314.3 290.6,309.2 294.8,304.0 299.1,298.7 303.4,293.2 307.7,287.6 311.9,281.9 316.2,276.1 320.5,270.2 324.7,264.1 329.0,257.9 333.3,251.6 337.5,245.2 341.8,238.6 346.1,231.9 350.3,225.1 354.6,218.2 358.9,211.2 363.2,204.0 367.4,196.7 371.7,189.3 376.0,181.8 380.2,174.1 384.5,166.4 388.8,158.5 393.0,150.5 397.3,142.3 401.6,134.1 405.8,125.7 410.1,117.2 414.4,108.5 418.7,99.8 422.9,90.9 427.2,81.9 431.5,72.8 435.7,63.6 440.0,54.2 440.0,200.2 435.7,204.7 431.5,209.2 427.2,213.7 422.9,218.1 418.7,222.5 414.4,226.8 410.1,231.1 405.8,235.3 401.6,239.5 397.3,243.7 393.0,247.8 388.8,251.9 384.5,255.9 380.2,259.9 376.0,263.9 371.7,267.8 367.4,271.7 363.2,275.5 358.9,279.3 354.6,283.1 350.3,286.8 346.1,290.5 341.8,294.1 337.5,297.7 333.3,301.3 329.0,304.8 324.7,308.2 320.5,311.7 316.2,315.1 311.9,318.4 307.7,321.7 303.4,325.0 299.1,328.2 294.8,331.4 290.6,334.6 286.3,337.7 282.0,340.7 277.8,343.8 273.5,346.7 269.2,349.7 265.0,352.6 260.7,355.4 256.4,358.3 252.2,361.1 247.9,363.8 243.6,366.5 239.3,369.1 235.1,371.8 230.8,374.3 226.5,376.9 222.3,379.4 218.0,381.8" fill="#d1495b" fill-opacity="0.10" stroke="none"/>
<polygon points="218.0,381.9 222.3,379.6 226.5,377.2 230.8,374.8 235.1,372.5 239.3,370.1 243.6,367.6 247.9,365.2 252.2,362.8 256.4,360.3 260.7,357.8 265.0,355.3 269.2,352.8 273.5,350.3 277.8,347.7 282.0,345.2 286.3,342.6 290.6,340.0 294.8,337.4 299.1,334.8 303.4,332.1 307.7,329.5 311.9,326.8 316.2,324.1 320.5,321.4 324.7,318.7 329.0,315.9 333.3,313.2 337.5,310.4 341.8,307.6 346.1,304.8 350.3,302.0 354.6,299.2 358.9,296.3 363.2,293.4 367.4,290.6 371.7,287.7 376.0,284.7 380.2,281.8 384.5,278.9 388.8,275.9 393.0,272.9 397.3,269.9 401.6,266.9 405.8,263.9 410.1,260.8 414.4,257.8 418.7,254.7 422.9,251.6 427.2,248.5 431.5,245.4 435.7,242.2 440.0,239.1 440.0,259.2 435.7,261.7 431.5,264.2 427.2,266.7 422.9,269.1 418.7,271.6 414.4,274.1 410.1,276.5 405.8,279.0 401.6,281.4 397.3,283.9 393.0,286.3 388.8,288.8 384.5,291.2 380.2,293.6 376.0,296.1 371.7,298.5 367.4,300.9 363.2,303.3 358.9,305.7 354.6,308.1 350.3,310.5 346.1,312.9 341.8,315.3 337.5,317.7 333.3,320.0 329.0,322.4 324.7,324.8 320.5,327.1 316.2,329.5 311.9,331.8 307.7,334.2 303.4,336.5 299.1,338.8 294.8,341.2 290.6,343.5 286.3,345.8 282.0,348.1 277.8,350.4 273.5,352.8 269.2,355.1 265.0,357.3 260.7,359.6 256.4,361.9 252.2,364.2 247.9,366.5 243.6,368.7 239.3,371.0 235.1,373.3 230.8,375.5 226.5,377.8 222.3,380.0 218.0,382.3" fill="#2e6fdb" fill-opacity="0.10" stroke="none"/>
<polyline points="218.0,380.5 222.3,377.7 226.5,374.8 230.8,371.9 235.1,368.8 239.3,365.7 243.6,362.5 247.9,359.2 252.2,355.8 256.4,352.4 260.7,348.9 265.0,345.2 269.2,341.5 273.5,337.8 277.8,333.9 282.0,330.0 286.3,325.9 290.6,321.8 294.8,317.7 299.1,313.4 303.4,309.0 307.7,304.6 311.9,300.1 316.2,295.5 320.5,290.8 324.7,286.1 329.0,281.3 333.3,276.3 337.5,271.3 341.8,266.3 346.1,261.1 350.3,255.9 354.6,250.5 358.9,245.1 363.2,239.6 367.4,234.1 371.7,228.4 376.0,222.7 380.2,216.9 384.5,211.0 388.8,205.0 393.0,198.9 397.3,192.8 401.6,186.6 405.8,180.3 410.1,173.9 414.4,167.4 418.7,160.9 422.9,154.3 427.2,147.6 431.5,140.8 435.7,133.9 440.0,126.9" fill="none" stroke="#d1495b" stroke-width="2.5" stroke-dasharray="7,5"/>
<polyline points="218.0,382.1 222.3,379.8 226.5,377.5 230.8,375.2 235.1,372.9 239.3,370.5 243.6,368.2 247.9,365.8 252.2,363.5 256.4,361.1 260.7,358.7 265.0,356.3 269.2,353.9 273.5,351.5 277.8,349.0 282.0,346.6 286.3,344.1 290.6,341.7 294.8,339.2 299.1,336.7 303.4,334.2 307.7,331.7 311.9,329.2 316.2,326.7 320.5,324.2 324.7,321.6 329.0,319.0 333.3,316.5 337.5,313.9 341.8,311.3 346.1,308.7 350.3,306.1 354.6,303.5 358.9,300.8 363.2,298.2 367.4,295.5 371.7,292.9 376.0,290.2 380.2,287.5 384.5,284.8 388.8,282.1 393.0,279.4 397.3,276.6 401.6,273.9 405.8,271.1 410.1,268.4 414.4,265.6 418.7,262.8 422.9,260.0 427.2,257.2 431.5,254.4 435.7,251.6 440.0,248.7" fill="none" stroke="#2e6fdb" stroke-width="2.5" stroke-dasharray="7,5"/>
<polyline points="107.0,395.3 144.0,391.9 218.0,380.5" fill="none" stroke="#d1495b" stroke-width="2.8"/>
<polyline points="107.0,395.6 144.0,391.8 218.0,382.1" fill="none" stroke="#2e6fdb" stroke-width="2.8"/>
<circle cx="107.0" cy="395.3" r="3.6" fill="#d1495b"/>
<circle cx="144.0" cy="391.9" r="3.6" fill="#d1495b"/>
<circle cx="218.0" cy="380.5" r="3.6" fill="#d1495b"/>
<circle cx="107.0" cy="395.6" r="3.6" fill="#2e6fdb"/>
<circle cx="144.0" cy="391.8" r="3.6" fill="#2e6fdb"/>
<circle cx="218.0" cy="382.1" r="3.6" fill="#2e6fdb"/>
<text x="436.0" y="120.9" text-anchor="end" fill="#d1495b" font-size="12" font-weight="700">SP ~$395</text>
<text x="436.0" y="264.7" text-anchor="end" fill="#2e6fdb" font-size="12" font-weight="700">UP ~$219</text>
<text x="226.0" y="151.4" fill="#444" font-size="12">@~task 180: ~1.8&#215; &#183; ~$175 gap</text>
<text x="544" y="74" font-size="15" font-weight="700" fill="#111">Coordinator window &#8212; SP nears 1M; UP bounded</text>
<text x="544" y="92" font-size="12" fill="#666">peak per-turn window &#183; opus 4.8 ceiling = 1M</text>
<rect x="590" y="110.0" width="148.0" height="290" fill="#2e6fdb" fill-opacity="0.04"/>
<line x1="738.0" y1="106.0" x2="738.0" y2="400" stroke="#555" stroke-width="1.2" stroke-dasharray="3,3"/>
<text x="732.0" y="104.0" text-anchor="end" fill="#555" font-size="10">&#9664; measured (N=1)</text>
<text x="744.0" y="104.0" text-anchor="start" fill="#555" font-size="10">projected &#9654;</text>
<line x1="590" y1="400.0" x2="960" y2="400.0" stroke="#eee"/>
<text x="582" y="404.0" text-anchor="end" fill="#999" font-size="11">0K</text>
<line x1="590" y1="342.0" x2="960" y2="342.0" stroke="#eee"/>
<text x="582" y="346.0" text-anchor="end" fill="#999" font-size="11">200K</text>
<line x1="590" y1="284.0" x2="960" y2="284.0" stroke="#eee"/>
<text x="582" y="288.0" text-anchor="end" fill="#999" font-size="11">400K</text>
<line x1="590" y1="226.0" x2="960" y2="226.0" stroke="#eee"/>
<text x="582" y="230.0" text-anchor="end" fill="#999" font-size="11">600K</text>
<line x1="590" y1="168.0" x2="960" y2="168.0" stroke="#eee"/>
<text x="582" y="172.0" text-anchor="end" fill="#999" font-size="11">800K</text>
<line x1="590" y1="110.0" x2="960" y2="110.0" stroke="#eee"/>
<text x="582" y="114.0" text-anchor="end" fill="#999" font-size="11">1000K</text>
<line x1="627.0" y1="400" x2="627.0" y2="404" stroke="#999"/>
<text x="627.0" y="420" text-anchor="middle" fill="#999" font-size="11">6</text>
<line x1="664.0" y1="400" x2="664.0" y2="404" stroke="#999"/>
<text x="664.0" y="420" text-anchor="middle" fill="#999" font-size="11">12</text>
<line x1="738.0" y1="400" x2="738.0" y2="404" stroke="#999"/>
<text x="738.0" y="420" text-anchor="middle" fill="#999" font-size="11" font-weight="700">24</text>
<line x1="772.2" y1="400" x2="772.2" y2="404" stroke="#999"/>
<text x="772.2" y="420" text-anchor="middle" fill="#999" font-size="11">48</text>
<line x1="840.5" y1="400" x2="840.5" y2="404" stroke="#999"/>
<text x="840.5" y="420" text-anchor="middle" fill="#999" font-size="11">96</text>
<line x1="908.8" y1="400" x2="908.8" y2="404" stroke="#999"/>
<text x="908.8" y="420" text-anchor="middle" fill="#999" font-size="11">144</text>
<line x1="960.0" y1="400" x2="960.0" y2="404" stroke="#999"/>
<text x="960.0" y="420" text-anchor="middle" fill="#999" font-size="11">180</text>
<text x="775" y="438" text-anchor="middle" fill="#666" font-size="12">tasks (axis compresses after 24)</text>
<line x1="590" y1="110.0" x2="960" y2="110.0" stroke="#b00" stroke-width="1.3" stroke-dasharray="4,4"/>
<text x="960.0" y="104.0" text-anchor="end" fill="#b00" font-size="11" font-weight="700">1M ceiling</text>
<polyline points="738.0,350.1 742.3,345.8 746.5,341.4 750.8,337.1 755.1,332.7 759.3,328.4 763.6,324.0 767.9,319.7 772.2,315.3 776.4,311.0 780.7,306.6 785.0,302.3 789.2,297.9 793.5,293.6 797.8,289.2 802.0,284.9 806.3,280.5 810.6,276.2 814.8,271.8 819.1,267.5 823.4,263.1 827.7,258.8 831.9,254.4 836.2,250.1 840.5,245.7 844.7,241.4 849.0,237.0 853.3,232.7 857.5,228.3 861.8,224.0 866.1,219.6 870.3,215.3 874.6,210.9 878.9,206.6 883.2,202.2 887.4,197.9 891.7,193.5 896.0,189.2 900.2,184.8 904.5,180.5 908.8,176.1 913.0,171.8 917.3,167.4 921.6,163.1 925.8,158.7 930.1,154.4 934.4,150.0 938.7,145.7 942.9,141.3 947.2,137.0 951.5,132.6 955.7,128.3 960.0,123.9" fill="none" stroke="#d1495b" stroke-width="2.5" stroke-dasharray="7,5"/>
<polyline points="738.0,382.9 742.3,382.2 746.5,381.5 750.8,380.7 755.1,380.0 759.3,379.3 763.6,378.6 767.9,377.9 772.2,377.1 776.4,376.4 780.7,375.7 785.0,375.0 789.2,374.2 793.5,373.5 797.8,372.8 802.0,372.1 806.3,371.4 810.6,370.6 814.8,369.9 819.1,369.2 823.4,368.5 827.7,367.7 831.9,367.0 836.2,366.3 840.5,365.6 844.7,364.9 849.0,364.1 853.3,363.4 857.5,362.7 861.8,362.0 866.1,361.3 870.3,360.5 874.6,359.8 878.9,359.1 883.2,358.4 887.4,357.6 891.7,356.9 896.0,356.2 900.2,355.5 904.5,354.8 908.8,354.0 913.0,353.3 917.3,352.6 921.6,351.9 925.8,351.1 930.1,350.4 934.4,349.7 938.7,349.0 942.9,348.3 947.2,347.5 951.5,346.8 955.7,346.1 960.0,345.4" fill="none" stroke="#2e6fdb" stroke-width="2.5" stroke-dasharray="7,5"/>
<polyline points="627.0,376.2 664.0,369.0 738.0,350.1" fill="none" stroke="#d1495b" stroke-width="2.8"/>
<polyline points="627.0,387.5 664.0,385.2 738.0,382.9" fill="none" stroke="#2e6fdb" stroke-width="2.8"/>
<circle cx="627.0" cy="376.2" r="3.6" fill="#d1495b"/>
<circle cx="664.0" cy="369.0" r="3.6" fill="#d1495b"/>
<circle cx="738.0" cy="350.1" r="3.6" fill="#d1495b"/>
<circle cx="627.0" cy="387.5" r="3.6" fill="#2e6fdb"/>
<circle cx="664.0" cy="385.2" r="3.6" fill="#2e6fdb"/>
<circle cx="738.0" cy="382.9" r="3.6" fill="#2e6fdb"/>
<text x="956.0" y="117.9" text-anchor="end" fill="#d1495b" font-size="12" font-weight="700">SP ~952K</text>
<text x="956.0" y="361.4" text-anchor="end" fill="#2e6fdb" font-size="12" font-weight="700">UP ~188K (bounded)</text>
<rect x="24" y="452" width="14" height="4" fill="#d1495b"/><text x="44" y="459" fill="#333" font-size="12">SP = superpowers (in-session coordinator)</text>
<rect x="330" y="452" width="14" height="4" fill="#2e6fdb"/><text x="350" y="459" fill="#333" font-size="12">UP = ultrapowers (flat JS coordinator)</text>
<text x="640" y="459" fill="#999" font-size="11">PROJECTED beyond 24 tasks via cache-read-tax mechanism &#183; not measured</text>
</svg>
